<?xml version="1.0" encoding="UTF-8" standalone="no"?>
<!-- Created with Inkscape (http://www.inkscape.org/) -->

<svg
   version="1.1"
   id="svg14837"
   width="880"
   height="880"
   viewBox="0 0 880 880"
   sodipodi:docname="frog-vector--pdv.svg"
   inkscape:version="1.2 (dc2aedaf03, 2022-05-15)"
   xmlns:inkscape="http://www.inkscape.org/namespaces/inkscape"
   xmlns:sodipodi="http://sodipodi.sourceforge.net/DTD/sodipodi-0.dtd"
   xmlns="http://www.w3.org/2000/svg"
   xmlns:svg="http://www.w3.org/2000/svg">
  <defs
     id="defs14841">
    <clipPath
       clipPathUnits="userSpaceOnUse"
       id="clipPath14855">
      <path
         d="M 0,660 H 660 V 0 H 0 Z"
         id="path14853" />
    </clipPath>
  </defs>
  <sodipodi:namedview
     id="namedview14839"
     pagecolor="#ffffff"
     bordercolor="#000000"
     borderopacity="0.25"
     inkscape:showpageshadow="2"
     inkscape:pageopacity="0.0"
     inkscape:pagecheckerboard="0"
     inkscape:deskcolor="#d1d1d1"
     showgrid="false"
     inkscape:zoom="0.95113636"
     inkscape:cx="441.05137"
     inkscape:cy="440.52569"
     inkscape:window-width="1920"
     inkscape:window-height="1017"
     inkscape:window-x="-8"
     inkscape:window-y="-8"
     inkscape:window-maximized="1"
     inkscape:current-layer="g14845">
    <inkscape:page
       x="0"
       y="0"
       id="page14843"
       width="880"
       height="880" />
  </sodipodi:namedview>
  <g
     id="g14845"
     inkscape:groupmode="layer"
     inkscape:label="Page 1"
     transform="matrix(1.3333333,0,0,-1.3333333,0,880)">
    <path
       d="m 0.297,4.432 h 656.06 V 660 H 0.297 Z"
       style="fill:#e6e6e6;fill-opacity:1;fill-rule:nonzero;stroke:none"
       id="path14847" />
    <g
       id="g14849">
      <g
         id="g14851"
         clip-path="url(#clipPath14855)">
        <g
           id="g14857"
           transform="translate(81.498,404.1455)">
          <path
             d="m 0,0 c -6.375,-8.288 -14.091,-11.479 -22.695,-11.307 -8.593,7.49 -16.918,13.131 -23.97,16.34 3.206,-9.409 10.185,-21.3 19.929,-33.438 1.193,-7.857 -1.151,-14.84 -8.053,-20.7 -9.335,0.688 -17.585,0.295 -23.797,-1.069 20.203,-12.695 45.137,-16.287 68.573,-17.735 3.373,-41.447 24.786,-94.526 60.513,-118.27 -0.167,-0.205 24.521,28.462 33.87,56.167 6.272,18.592 6.25,34.773 4.924,53.923 11.334,-20.795 22.138,-44.328 40.122,-60.17 13.618,-11.992 0.534,-24.007 42.105,-35.885 11.527,-3.292 18.336,-7.305 28.008,-14.11 5.959,-4.401 53.787,-35.571 54.048,-36.109 -2.26,-4.47 -25.337,-3.018 -30.76,-3.056 -40.821,-2.021 -70.862,-8.741 -108.175,-25.721 v -0.002 c 11.027,-18.157 33.108,-36.022 61.462,-47.637 20.39,-7.85 35.825,-12.013 57.622,-14.113 -2.134,-21.526 3.126,-45.923 14.614,-64.211 0.848,4.369 1.017,23.162 1.24,23.724 1.864,4.718 16.13,9.512 21.387,7.425 2.622,-1.039 18.739,-13.701 29.79,-18.117 5.88,-2.349 1.415,2.523 -1.853,7.784 -7.127,11.482 -14.656,12.826 -6.74,24.803 13.001,16.973 23.607,5.718 38.09,12.456 0.847,5.771 -73.097,15.504 -79.455,16.537 -1.585,0.788 -22.074,20.131 -28.395,24.508 -26.199,18.136 -29.056,11.973 11.714,9.067 61.623,-4.218 95.683,1.401 149.437,33.629 -26.932,37.585 -44.227,51.065 -82.573,75.725 -19.908,12.801 15.319,5.905 34.266,38.707 7.376,12.765 10.257,29.24 13.366,43.562 7.551,-43.197 12.033,-57.265 35.216,-94.851 45.356,27.912 59.445,74.657 76.32,121.894 14.267,-12.307 33.938,-23.045 52.725,-25.368 -2.449,3.084 -5.926,6.424 -10.193,9.767 -1.094,5.895 2.726,11.681 10.289,17.383 7.693,1.436 14.318,3.45 19.277,5.826 -4.959,1.915 -11.442,3.375 -18.901,4.224 -6.107,6.066 -8.21,13.408 -6.234,22.046 5.344,4.69 9.619,9.318 12.505,13.507 -4.759,-0.729 -10.417,-2.407 -16.559,-4.927 -25.555,6.402 -19.75,17.64 -19.54,34.656 0.101,8.214 -20.476,-33.778 -22.335,-38.535 -10.551,-28.534 0.248,-18.894 -20.543,-42.477 -29.585,-37.505 -39.7,-74.352 -56.746,-117.19 -0.087,0 0.942,20.186 0.855,22.054 -1.685,35.682 -13.793,64.03 -18.523,96.606 -0.696,4.8 -0.766,7.283 -0.66,12.052 3.409,12.592 45.611,23.644 60.324,51.129 l 2.98,5.569 c 8.66,18.335 16.105,16.439 7.444,40.831 -3.106,8.75 -1.836,22.942 -8.467,38.997 -11.388,27.578 -31.166,35.214 -59.511,34.65 -17.66,1.082 -25.031,9.153 -37.251,-6.373 -14.207,-18.052 -15.634,-4.406 -27.016,-37.153 -5.207,-13.857 -17.047,-36.012 -32.069,-40.903 -0.211,-0.068 -40.702,5.992 -45.613,6.448 -27.924,2.609 -50.252,6.642 -77.462,10.551 -33.75,4.847 -3.597,-0.241 19.525,5.913 40.661,10.822 68.111,43.579 90.096,77.369 4.74,7.285 5.778,5.141 14.206,7.712 16.705,5.724 41.382,18.32 54.018,30.51 -3.55,0.034 -7.667,-0.363 -12.177,-1.175 l 0.004,0.002 c -16.423,-0.062 -21.352,9.507 -23.875,21.091 2.52,6.144 4.198,11.802 4.927,16.562 -4.188,-2.886 -8.819,-7.162 -13.507,-12.504 -8.638,-1.978 -15.978,0.127 -22.046,6.232 -0.847,7.458 -2.308,13.942 -4.224,18.901 -2.376,-4.96 -4.389,-11.584 -5.825,-19.279 -15.326,-19.117 -16.669,-8.728 -27.126,-0.11 2.635,-19.117 16.104,-41.242 29.006,-55.55 C 246.71,144.569 173.119,85.883 153.621,64.773 184.794,38.274 204.042,31.349 244.305,27.58 257.46,26.35 230.812,20.949 226.962,19.702 197.936,10.3 171.004,2.729 159.149,-28.502 c -4.201,-11.066 -3.814,-6.149 -8.492,7.45 -9.832,28.592 -36.524,71.778 -60.25,89.342 l -4.822,3.569 C 50.803,1.799 64.238,-36.467 67.783,-107.494 56.762,-88.343 44.568,-72.385 27.785,-57.67 c -7.331,6.431 -4.489,5.864 -5.958,17.064 C 18.839,-17.851 13.824,8.235 2.077,28.024 0.277,20.704 -0.47,11.008 0,0"
             style="fill:#cccccc;fill-opacity:1;fill-rule:evenodd;stroke:none"
             id="path14859" />
        </g>
        <g
           id="g14861"
           transform="translate(409.7412,91.3955)">
          <path
             d="m 0,0 c -21.038,-9.749 -24.013,-24.25 -18.81,-40.902 -19.376,12.818 -35.625,12.957 -46.254,-9.666 -2.77,20.897 -5.541,41.795 -8.311,62.692 C -48.916,8.081 -24.458,4.042 0,0"
             style="fill:#82970a;fill-opacity:1;fill-rule:evenodd;stroke:none"
             id="path14863" />
        </g>
        <g
           id="g14865"
           transform="translate(583.4639,420.2271)">
          <path
             d="M 0,0 C -0.073,-19.462 13.379,-22.782 27.682,-25.086 21.015,-39.888 24.628,-51.418 38.211,-59.775 23.406,-68.537 16.772,-77.477 22.678,-86.698 6.906,-77.686 -8.868,-68.675 -24.639,-59.662 -16.426,-39.775 -8.212,-19.887 0,0"
             style="fill:#82970a;fill-opacity:1;fill-rule:evenodd;stroke:none"
             id="path14867" />
        </g>
        <g
           id="g14869"
           transform="translate(354.8242,96.1992)">
          <path
             d="M 0,0 C -11.028,18.155 -33.108,36.022 -61.462,47.638 -89.82,59.252 -118.088,62.009 -138.685,56.805 -127.657,38.648 -105.576,20.78 -77.222,9.167 -48.865,-2.447 -20.597,-5.204 0,0"
             style="fill:#94ab13;fill-opacity:1;fill-rule:evenodd;stroke:none"
             id="path14871" />
        </g>
        <g
           id="g14873"
           transform="translate(471.8721,171.2148)">
          <path
             d="m 0,0 c -30.054,10.513 -77.055,15.352 -129.344,11.629 -52.284,-3.722 -98.126,-15.172 -126.389,-29.84 30.057,-10.513 77.056,-15.352 129.343,-11.628 C -74.101,-26.114 -28.262,-14.664 0,0"
             style="fill:#82970a;fill-opacity:1;fill-rule:evenodd;stroke:none"
             id="path14875" />
        </g>
        <g
           id="g14877"
           transform="translate(471.8721,171.2148)">
          <path
             d="m 0,0 c -18.319,27.349 -53.415,52.569 -97.524,66.857 -44.109,14.289 -87.328,14.435 -118.204,3.023 18.321,-27.349 53.419,-52.57 97.526,-66.859 C -74.095,-11.266 -30.874,-11.412 0,0"
             style="fill:#94ab13;fill-opacity:1;fill-rule:evenodd;stroke:none"
             id="path14879" />
        </g>
        <g
           id="g14881"
           transform="translate(471.6875,238.5635)">
          <path
             d="m 0,0 c -11.982,16.645 -23.555,44.798 -30.801,77.78 -7.246,32.983 -8.544,63.392 -4.642,83.529 11.982,-16.647 23.551,-44.8 30.798,-77.781 C 2.603,50.546 3.899,20.137 0,0"
             style="fill:#94ab13;fill-opacity:1;fill-rule:evenodd;stroke:none"
             id="path14883" />
        </g>
        <g
           id="g14885"
           transform="translate(471.6875,238.5635)">
          <path
             d="M 0,0 C 4.262,20.064 17.317,47.558 36.853,75.101 56.391,102.646 78.024,124.055 95.551,134.71 91.288,114.646 78.232,87.151 58.696,59.607 39.161,32.065 17.527,10.655 0,0"
             style="fill:#94ab13;fill-opacity:1;fill-rule:evenodd;stroke:none"
             id="path14887" />
        </g>
        <g
           id="g14889"
           transform="translate(553.5049,358.3784)">
          <path
             d="M 0,0 C -0.094,9.974 3.199,24.401 9.564,39.535 15.93,54.67 23.938,67.114 31.132,74.023 31.227,64.051 27.933,49.623 21.567,34.488 15.202,19.354 7.193,6.908 0,0"
             style="fill:#94ab13;fill-opacity:1;fill-rule:evenodd;stroke:none"
             id="path14891" />
        </g>
        <g
           id="g14893"
           transform="translate(553.0732,358.6382)">
          <path
             d="M 0,0 C 5.659,8.212 16.652,18.12 30.563,26.837 44.476,35.557 58.187,41.13 68.043,42.644 62.387,34.431 51.391,24.524 37.479,15.804 23.567,7.086 9.857,1.513 0,0"
             style="fill:#94ab13;fill-opacity:1;fill-rule:evenodd;stroke:none"
             id="path14895" />
        </g>
        <g
           id="g14897"
           transform="translate(553.5049,358.3784)">
          <path
             d="M 0,0 C 8.995,4.307 23.462,7.43 39.868,8.067 56.274,8.707 70.939,6.719 80.243,3.125 71.246,-1.183 56.781,-4.305 40.375,-4.942 23.969,-5.582 9.302,-3.594 0,0"
             style="fill:#94ab13;fill-opacity:1;fill-rule:evenodd;stroke:none"
             id="path14899" />
        </g>
        <g
           id="g14901"
           transform="translate(555.9678,359.8657)">
          <path
             d="m 0,0 c 8.202,-0.698 19.802,-4.527 31.745,-10.934 11.942,-6.408 21.544,-13.957 26.66,-20.404 -8.202,0.698 -19.801,4.527 -31.743,10.935 C 14.721,-13.997 5.118,-6.448 0,0"
             style="fill:#94ab13;fill-opacity:1;fill-rule:evenodd;stroke:none"
             id="path14903" />
        </g>
        <g
           id="g14905"
           transform="translate(428.0381,87.707)">
          <path
             d="M 0,0 C -10.3,6.66 -27.459,12.73 -47.374,16.071 -67.287,19.415 -85.487,19.283 -97.398,16.35 -87.099,9.691 -69.939,3.623 -50.024,0.278 -30.109,-3.063 -11.911,-2.93 0,0"
             style="fill:#94ab13;fill-opacity:1;fill-rule:evenodd;stroke:none"
             id="path14907" />
        </g>
        <g
           id="g14909"
           transform="translate(405.0459,38.9648)">
          <path
             d="M 0,0 C -5.082,11.164 -16.257,25.53 -31.223,39.086 -46.19,52.642 -61.588,62.346 -73.197,66.301 -68.115,55.139 -56.94,40.773 -41.976,27.217 -27.009,13.661 -11.609,3.957 0,0"
             style="fill:#94ab13;fill-opacity:1;fill-rule:evenodd;stroke:none"
             id="path14911" />
        </g>
        <g
           id="g14913"
           transform="translate(349.8389,27.043)">
          <path
             d="M 0,0 C 2.16,9.837 1.892,24.778 -1.266,41.055 -4.422,57.331 -9.759,71.288 -15.44,79.604 -17.598,69.766 -17.331,54.826 -14.174,38.551 -11.017,22.274 -5.679,8.316 0,0"
             style="fill:#94ab13;fill-opacity:1;fill-rule:evenodd;stroke:none"
             id="path14915" />
        </g>
        <g
           id="g14917"
           transform="translate(87.2632,413.874)">
          <path
             d="m 0,0 c -9.749,-21.039 -24.248,-24.014 -40.904,-18.811 12.82,-19.377 12.958,-35.623 -9.664,-46.253 20.898,-2.771 41.794,-5.542 62.694,-8.311 C 8.082,-48.916 4.043,-24.459 0,0"
             style="fill:#82970a;fill-opacity:1;fill-rule:evenodd;stroke:none"
             id="path14919" />
        </g>
        <g
           id="g14921"
           transform="translate(416.0957,587.5962)">
          <path
             d="M 0,0 C -19.462,-0.073 -22.781,13.38 -25.086,27.683 -39.889,21.015 -51.419,24.628 -59.776,38.21 -68.537,23.407 -77.478,16.771 -86.699,22.677 -77.687,6.906 -68.677,-8.867 -59.664,-24.64 -39.776,-16.425 -19.89,-8.212 0,0"
             style="fill:#82970a;fill-opacity:1;fill-rule:evenodd;stroke:none"
             id="path14923" />
        </g>
        <g
           id="g14925"
           transform="translate(92.0664,358.9561)">
          <path
             d="m 0,0 c 18.158,-11.028 36.022,-33.108 47.637,-61.462 11.617,-28.357 14.37,-56.625 9.168,-77.222 -18.156,11.028 -36.022,33.109 -47.638,61.462 C -2.447,-48.866 -5.204,-20.598 0,0"
             style="fill:#94ab13;fill-opacity:1;fill-rule:evenodd;stroke:none"
             id="path14927" />
        </g>
        <g
           id="g14929"
           transform="translate(167.083,476.0054)">
          <path
             d="m 0,0 c 10.513,-30.055 15.351,-77.056 11.63,-129.344 -3.725,-52.286 -15.175,-98.127 -29.841,-126.391 -10.513,30.058 -15.352,77.057 -11.629,129.344 C -26.115,-74.103 -14.665,-28.264 0,0"
             style="fill:#82970a;fill-opacity:1;fill-rule:evenodd;stroke:none"
             id="path14931" />
        </g>
        <g
           id="g14933"
           transform="translate(167.083,476.0054)">
          <path
             d="m 0,0 c 27.348,-18.32 52.568,-53.417 66.857,-97.525 14.288,-44.109 14.434,-87.328 3.022,-118.204 -27.347,18.321 -52.57,53.417 -66.858,97.526 C -11.266,-74.095 -11.414,-30.875 0,0"
             style="fill:#94ab13;fill-opacity:1;fill-rule:evenodd;stroke:none"
             id="path14935" />
        </g>
        <g
           id="g14937"
           transform="translate(234.4292,475.8203)">
          <path
             d="m 0,0 c 16.648,-11.983 44.8,-23.555 77.783,-30.802 32.982,-7.246 63.391,-8.542 83.528,-4.642 -16.647,11.983 -44.8,23.552 -77.781,30.8 C 50.547,2.603 20.139,3.9 0,0"
             style="fill:#94ab13;fill-opacity:1;fill-rule:evenodd;stroke:none"
             id="path14939" />
        </g>
        <g
           id="g14941"
           transform="translate(234.4292,475.8193)">
          <path
             d="m 0,0 c 20.066,4.263 47.56,17.318 75.105,36.855 27.541,19.536 48.951,41.171 59.608,58.698 C 114.649,91.289 87.153,78.234 59.609,58.697 32.066,39.162 10.657,17.527 0,0"
             style="fill:#94ab13;fill-opacity:1;fill-rule:evenodd;stroke:none"
             id="path14943" />
        </g>
        <g
           id="g14945"
           transform="translate(354.2451,557.6372)">
          <path
             d="M 0,0 C 9.975,-0.094 24.402,3.199 39.536,9.565 54.671,15.93 67.116,23.938 74.025,31.132 64.051,31.226 49.623,27.933 34.488,21.567 19.354,15.202 6.909,7.193 0,0"
             style="fill:#94ab13;fill-opacity:1;fill-rule:evenodd;stroke:none"
             id="path14947" />
        </g>
        <g
           id="g14949"
           transform="translate(354.5059,557.2061)">
          <path
             d="M 0,0 C 8.212,5.659 18.119,16.652 26.838,30.563 35.557,44.475 41.13,58.185 42.643,68.043 34.432,62.385 24.524,51.391 15.805,37.478 7.086,23.567 1.512,9.857 0,0"
             style="fill:#94ab13;fill-opacity:1;fill-rule:evenodd;stroke:none"
             id="path14951" />
        </g>
        <g
           id="g14953"
           transform="translate(354.2451,557.6372)">
          <path
             d="M 0,0 C 4.308,8.995 7.431,23.461 8.069,39.868 8.708,56.274 6.72,70.938 3.126,80.242 -1.182,71.246 -4.305,56.78 -4.941,40.374 -5.58,23.968 -3.594,9.302 0,0"
             style="fill:#94ab13;fill-opacity:1;fill-rule:evenodd;stroke:none"
             id="path14955" />
        </g>
        <g
           id="g14957"
           transform="translate(355.7324,560.1011)">
          <path
             d="m 0,0 c -0.697,8.203 -4.525,19.802 -10.934,31.743 -6.408,11.94 -13.956,21.546 -20.404,26.661 0.699,-8.202 4.528,-19.8 10.936,-31.744 C -13.995,14.72 -6.448,5.117 0,0"
             style="fill:#94ab13;fill-opacity:1;fill-rule:evenodd;stroke:none"
             id="path14959" />
        </g>
        <g
           id="g14961"
           transform="translate(83.5752,432.1699)">
          <path
             d="m 0,0 c 6.659,-10.299 12.729,-27.46 16.071,-47.374 3.344,-19.915 3.211,-38.113 0.278,-50.024 C 9.691,-87.098 3.621,-69.939 0.278,-50.024 -3.064,-30.11 -2.93,-11.911 0,0"
             style="fill:#94ab13;fill-opacity:1;fill-rule:evenodd;stroke:none"
             id="path14963" />
        </g>
        <g
           id="g14965"
           transform="translate(34.8325,409.1787)">
          <path
             d="m 0,0 c 11.165,-5.083 25.53,-16.259 39.086,-31.223 13.556,-14.966 23.26,-30.365 27.216,-41.975 -11.164,5.082 -25.53,16.257 -39.086,31.223 C 13.661,-27.009 3.957,-11.61 0,0"
             style="fill:#94ab13;fill-opacity:1;fill-rule:evenodd;stroke:none"
             id="path14967" />
        </g>
        <g
           id="g14969"
           transform="translate(22.9121,353.9717)">
          <path
             d="M 0,0 C 9.836,2.159 24.777,1.891 41.053,-1.267 57.328,-4.423 71.287,-9.76 79.602,-15.441 69.766,-17.598 54.825,-17.331 38.549,-14.174 22.273,-11.018 8.315,-5.679 0,0"
             style="fill:#94ab13;fill-opacity:1;fill-rule:evenodd;stroke:none"
             id="path14971" />
        </g>
        <g
           id="g14973"
           transform="translate(516.0029,520.1357)">
          <path
             d="m 0,0 c 27.218,-27.216 13.138,-85.422 -5.892,-104.452 -4.584,-4.585 -11.591,-9.028 -19.963,-12.753 -27.282,-12.132 -45.337,-34.733 -51.146,-64.021 -5.98,-30.142 -19.812,-58.789 -34.642,-73.619 -30.861,-30.859 -125.639,-61.525 -165.183,-21.981 -39.544,39.542 -8.878,134.323 21.982,165.181 14.83,14.831 43.475,28.664 73.618,34.643 29.287,5.809 51.89,23.865 64.022,51.146 3.724,8.375 8.168,15.379 12.754,19.964 C -85.422,13.138 -27.216,27.217 0,0"
             style="fill:#a7bf1c;fill-opacity:1;fill-rule:evenodd;stroke:none"
             id="path14975" />
        </g>
        <g
           id="g14977"
           transform="translate(500.9824,505.1147)">
          <path
             d="m 0,0 c 11.671,-11.671 -11.086,-53.352 -28.052,-70.317 -4.087,-4.087 -9.739,-8.64 -16.129,-13.037 -20.817,-14.32 -37.964,-33.417 -48.573,-54.095 -10.921,-21.282 -26.678,-43.392 -39.901,-56.613 -27.509,-27.51 -97.174,-69.681 -114.13,-52.723 -16.957,16.958 25.213,86.621 52.723,114.131 13.221,13.221 35.332,28.979 56.615,39.9 20.675,10.609 39.772,27.758 54.093,48.573 4.397,6.39 8.951,12.042 13.037,16.129 C -53.352,-11.087 -11.671,11.671 0,0"
             style="fill:#bad526;fill-opacity:1;fill-rule:evenodd;stroke:none"
             id="path14979" />
        </g>
        <g
           id="g14981"
           transform="translate(466.4541,529.9238)">
          <path
             d="m 0,0 c 4.1,-8.269 -1.626,-19.457 -12.784,-24.988 -11.159,-5.532 -23.528,-3.313 -27.627,4.958 -4.099,8.269 1.625,19.455 12.784,24.987 C -16.469,10.489 -4.099,8.269 0,0"
             style="fill:#82970a;fill-opacity:1;fill-rule:evenodd;stroke:none"
             id="path14983" />
        </g>
        <g
           id="g14985"
           transform="translate(454.8799,533.0605)">
          <path
             d="m 0,0 c 2.468,-4.977 -0.978,-11.712 -7.696,-15.042 -6.716,-3.329 -14.162,-1.993 -16.628,2.984 -2.468,4.978 0.976,11.713 7.695,15.042 C -9.912,6.313 -2.467,4.978 0,0"
             style="fill:#333333;fill-opacity:1;fill-rule:evenodd;stroke:none"
             id="path14987" />
        </g>
        <g
           id="g14989"
           transform="translate(451.1602,526.7314)">
          <path
             d="m 0,0 c 1.034,-2.088 -0.41,-4.911 -3.228,-6.307 -2.817,-1.397 -5.938,-0.836 -6.974,1.252 -1.034,2.085 0.41,4.911 3.227,6.307 C -4.157,2.648 -1.035,2.087 0,0"
             style="fill:#e6e6e6;fill-opacity:1;fill-rule:evenodd;stroke:none"
             id="path14991" />
        </g>
        <g
           id="g14993"
           transform="translate(525.791,470.5859)">
          <path
             d="m 0,0 c -8.269,4.099 -19.457,-1.626 -24.986,-12.785 -5.532,-11.159 -3.312,-23.528 4.957,-27.626 8.269,-4.099 19.458,1.624 24.987,12.784 C 10.489,-16.468 8.269,-4.099 0,0"
             style="fill:#82970a;fill-opacity:1;fill-rule:evenodd;stroke:none"
             id="path14995" />
        </g>
        <g
           id="g14997"
           transform="translate(528.9277,459.0117)">
          <path
             d="m 0,0 c -4.977,2.467 -11.712,-0.978 -15.041,-7.694 -3.329,-6.719 -1.992,-14.165 2.984,-16.631 4.979,-2.467 11.712,0.98 15.041,7.696 C 6.314,-9.912 4.979,-2.467 0,0"
             style="fill:#333333;fill-opacity:1;fill-rule:evenodd;stroke:none"
             id="path14999" />
        </g>
        <g
           id="g15001"
           transform="translate(522.5996,455.291)">
          <path
             d="m 0,0 c -2.088,1.035 -4.912,-0.41 -6.309,-3.226 -1.395,-2.817 -0.834,-5.94 1.252,-6.974 2.086,-1.035 4.912,0.41 6.309,3.226 C 2.646,-4.157 2.088,-1.035 0,0"
             style="fill:#e6e6e6;fill-opacity:1;fill-rule:evenodd;stroke:none"
             id="path15003" />
        </g>
      </g>
    </g>
  </g>
</svg>
